<svg xmlns="http://www.w3.org/2000/svg" viewBox="0 0 120 120" width="120" height="120">
  <defs>
    <filter id="glow">
      <feGaussianBlur stdDeviation="2.5" result="b"/>
      <feMerge><feMergeNode in="b"/><feMergeNode in="SourceGraphic"/></feMerge>
    </filter>
    <linearGradient id="pg" x1="0" y1="0" x2="1" y2="0">
      <stop offset="0%" stop-color="#22d3ee"/>
      <stop offset="100%" stop-color="#3b82f6"/>
    </linearGradient>
  </defs>
  <rect width="120" height="120" rx="18" fill="#1a1a2e"/>
  <rect x="10" y="16" width="28" height="13" rx="3" fill="#da77f2"/>
  <rect x="46" y="16" width="28" height="13" rx="3" fill="#da77f2"/>
  <rect x="82" y="16" width="28" height="13" rx="3" fill="#da77f2"/>
  <rect x="10" y="34" width="28" height="13" rx="3" fill="#74c0fc"/>
  <rect x="46" y="34" width="28" height="13" rx="3" fill="#74c0fc"/>
  <rect x="82" y="34" width="28" height="13" rx="3" fill="#74c0fc"/>
  <rect x="10" y="52" width="28" height="13" rx="3" fill="#ffd43b"/>
  <rect x="46" y="52" width="28" height="13" rx="3" fill="#ffd43b"/>
  <rect x="82" y="52" width="28" height="13" rx="3" fill="#ffd43b"/>
  <circle cx="60" cy="78" r="8" fill="#fff" filter="url(#glow)"/>
  <rect x="28" y="98" width="64" height="11" rx="5" fill="url(#pg)"/>
</svg>
